<svg xmlns="http://www.w3.org/2000/svg" width="1600" height="900" viewBox="0 0 1600 900" role="img">
<title>Beobachtungsbelege für das heiße Urknallmodell</title>
<desc>Größere beobachtete Wellenlänge bei gleicher Vergleichsstrecke; Hintergrundstrahlung mit Wellenpfeilen aus allen Richtungen zum Beobachter; heißes frühes und kühleres späteres Modell als Textfolge.</desc>
<rect width="1600" height="900" fill="#fff"/>
<g font-family="Arial, Liberation Sans, sans-serif" fill="#183249">
<text x="50" y="85" font-size="42" text-anchor="start" font-weight="700">Beobachtungsbelege für das heiße Urknallmodell</text>
<rect x="40" y="160" width="735" height="595" rx="22" fill="#f5f9fc" stroke="#ccd9e2" stroke-width="2"/>
<rect x="825" y="160" width="735" height="595" rx="22" fill="#f5f9fc" stroke="#ccd9e2" stroke-width="2"/>
<text x="70" y="214" font-size="30" text-anchor="start" font-weight="700">Kosmologische Rotverschiebung</text>
<text x="855" y="214" font-size="29" text-anchor="start" font-weight="700">Kosmische Hintergrundstrahlung</text>
<path data-wave="emitted" d="M140,350 L142,347.1315 L144,344.2862 L146,341.4868 L148,338.756 L150,336.1157 L152,333.5872 L154,331.1909 L156,328.946 L158,326.8706 L160,324.9814 L162,323.2937 L164,321.8209 L166,320.5751 L168,319.5662 L170,318.8023 L172,318.2896 L174,318.0322 L176,318.0322 L178,318.2896 L180,318.8023 L182,319.5662 L184,320.5751 L186,321.8209 L188,323.2937 L190,324.9814 L192,326.8706 L194,328.946 L196,331.1909 L198,333.5872 L200,336.1157 L202,338.756 L204,341.4868 L206,344.2862 L208,347.1315 L210,350 L212,352.8685 L214,355.7138 L216,358.5132 L218,361.244 L220,363.8843 L222,366.4128 L224,368.8091 L226,371.054 L228,373.1294 L230,375.0186 L232,376.7063 L234,378.1791 L236,379.4249 L238,380.4338 L240,381.1977 L242,381.7104 L244,381.9678 L246,381.9678 L248,381.7104 L250,381.1977 L252,380.4338 L254,379.4249 L256,378.1791 L258,376.7063 L260,375.0186 L262,373.1294 L264,371.054 L266,368.8091 L268,366.4128 L270,363.8843 L272,361.244 L274,358.5132 L276,355.7138 L278,352.8685 L280,350 L282,347.1315 L284,344.2862 L286,341.4868 L288,338.756 L290,336.1157 L292,333.5872 L294,331.1909 L296,328.946 L298,326.8706 L300,324.9814 L302,323.2937 L304,321.8209 L306,320.5751 L308,319.5662 L310,318.8023 L312,318.2896 L314,318.0322 L316,318.0322 L318,318.2896 L320,318.8023 L322,319.5662 L324,320.5751 L326,321.8209 L328,323.2937 L330,324.9814 L332,326.8706 L334,328.946 L336,331.1909 L338,333.5872 L340,336.1157 L342,338.756 L344,341.4868 L346,344.2862 L348,347.1315 L350,350 L352,352.8685 L354,355.7138 L356,358.5132 L358,361.244 L360,363.8843 L362,366.4128 L364,368.8091 L366,371.054 L368,373.1294 L370,375.0186 L372,376.7063 L374,378.1791 L376,379.4249 L378,380.4338 L380,381.1977 L382,381.7104 L384,381.9678 L386,381.9678 L388,381.7104 L390,381.1977 L392,380.4338 L394,379.4249 L396,378.1791 L398,376.7063 L400,375.0186 L402,373.1294 L404,371.054 L406,368.8091 L408,366.4128 L410,363.8843 L412,361.244 L414,358.5132 L416,355.7138 L418,352.8685 L420,350 L422,347.1315 L424,344.2862 L426,341.4868 L428,338.756 L430,336.1157 L432,333.5872 L434,331.1909 L436,328.946 L438,326.8706 L440,324.9814 L442,323.2937 L444,321.8209 L446,320.5751 L448,319.5662 L450,318.8023 L452,318.2896 L454,318.0322 L456,318.0322 L458,318.2896 L460,318.8023 L462,319.5662 L464,320.5751 L466,321.8209 L468,323.2937 L470,324.9814 L472,326.8706 L474,328.946 L476,331.1909 L478,333.5872 L480,336.1157 L482,338.756 L484,341.4868 L486,344.2862 L488,347.1315 L490,350 L492,352.8685 L494,355.7138 L496,358.5132 L498,361.244 L500,363.8843 L502,366.4128 L504,368.8091 L506,371.054 L508,373.1294 L510,375.0186 L512,376.7063 L514,378.1791 L516,379.4249 L518,380.4338 L520,381.1977 L522,381.7104 L524,381.9678 L526,381.9678 L528,381.7104 L530,381.1977 L532,380.4338 L534,379.4249 L536,378.1791 L538,376.7063 L540,375.0186 L542,373.1294 L544,371.054 L546,368.8091 L548,366.4128 L550,363.8843 L552,361.244 L554,358.5132 L556,355.7138 L558,352.8685 L560,350 L562,347.1315 L564,344.2862 L566,341.4868 L568,338.756 L570,336.1157 L572,333.5872 L574,331.1909 L576,328.946 L578,326.8706 L580,324.9814 L582,323.2937 L584,321.8209 L586,320.5751 L588,319.5662 L590,318.8023 L592,318.2896 L594,318.0322 L596,318.0322 L598,318.2896 L600,318.8023 L602,319.5662 L604,320.5751 L606,321.8209 L608,323.2937 L610,324.9814 L612,326.8706 L614,328.946 L616,331.1909 L618,333.5872 L620,336.1157 L622,338.756 L624,341.4868 L626,344.2862 L628,347.1315 L630,350 L632,352.8685 L634,355.7138 L636,358.5132 L638,361.244 L640,363.8843 L642,366.4128 L644,368.8091 L646,371.054 L648,373.1294 L650,375.0186 L652,376.7063 L654,378.1791 L656,379.4249 L658,380.4338 L660,381.1977 L662,381.7104 L664,381.9678 L666,381.9678 L668,381.7104 L670,381.1977 L672,380.4338 L674,379.4249 L676,378.1791 L678,376.7063 L680,375.0186 L682,373.1294 L684,371.054 L686,368.8091 L688,366.4128 L690,363.8843 L692,361.244 L694,358.5132 L696,355.7138 L698,352.8685 L700,350" fill="none" stroke="#357ca9" stroke-width="5"/>
<path data-wave="observed" d="M140,540 L142,538.5643 L144,537.1315 L146,535.7045 L148,534.2862 L150,532.8793 L152,531.4868 L154,530.1115 L156,528.756 L158,527.4232 L160,526.1157 L162,524.8362 L164,523.5872 L166,522.3713 L168,521.1909 L170,520.0483 L172,518.946 L174,517.886 L176,516.8706 L178,515.9017 L180,514.9814 L182,514.1115 L184,513.2937 L186,512.5296 L188,511.8209 L190,511.169 L192,510.5751 L194,510.0405 L196,509.5662 L198,509.1532 L200,508.8023 L202,508.5143 L204,508.2896 L206,508.1288 L208,508.0322 L210,508 L212,508.0322 L214,508.1288 L216,508.2896 L218,508.5143 L220,508.8023 L222,509.1532 L224,509.5662 L226,510.0405 L228,510.5751 L230,511.169 L232,511.8209 L234,512.5296 L236,513.2937 L238,514.1115 L240,514.9814 L242,515.9017 L244,516.8706 L246,517.886 L248,518.946 L250,520.0483 L252,521.1909 L254,522.3713 L256,523.5872 L258,524.8362 L260,526.1157 L262,527.4232 L264,528.756 L266,530.1115 L268,531.4868 L270,532.8793 L272,534.2862 L274,535.7045 L276,537.1315 L278,538.5643 L280,540 L282,541.4357 L284,542.8685 L286,544.2955 L288,545.7138 L290,547.1207 L292,548.5132 L294,549.8885 L296,551.244 L298,552.5768 L300,553.8843 L302,555.1638 L304,556.4128 L306,557.6287 L308,558.8091 L310,559.9517 L312,561.054 L314,562.114 L316,563.1294 L318,564.0983 L320,565.0186 L322,565.8885 L324,566.7063 L326,567.4704 L328,568.1791 L330,568.831 L332,569.4249 L334,569.9595 L336,570.4338 L338,570.8468 L340,571.1977 L342,571.4857 L344,571.7104 L346,571.8712 L348,571.9678 L350,572 L352,571.9678 L354,571.8712 L356,571.7104 L358,571.4857 L360,571.1977 L362,570.8468 L364,570.4338 L366,569.9595 L368,569.4249 L370,568.831 L372,568.1791 L374,567.4704 L376,566.7063 L378,565.8885 L380,565.0186 L382,564.0983 L384,563.1294 L386,562.114 L388,561.054 L390,559.9517 L392,558.8091 L394,557.6287 L396,556.4128 L398,555.1638 L400,553.8843 L402,552.5768 L404,551.244 L406,549.8885 L408,548.5132 L410,547.1207 L412,545.7138 L414,544.2955 L416,542.8685 L418,541.4357 L420,540 L422,538.5643 L424,537.1315 L426,535.7045 L428,534.2862 L430,532.8793 L432,531.4868 L434,530.1115 L436,528.756 L438,527.4232 L440,526.1157 L442,524.8362 L444,523.5872 L446,522.3713 L448,521.1909 L450,520.0483 L452,518.946 L454,517.886 L456,516.8706 L458,515.9017 L460,514.9814 L462,514.1115 L464,513.2937 L466,512.5296 L468,511.8209 L470,511.169 L472,510.5751 L474,510.0405 L476,509.5662 L478,509.1532 L480,508.8023 L482,508.5143 L484,508.2896 L486,508.1288 L488,508.0322 L490,508 L492,508.0322 L494,508.1288 L496,508.2896 L498,508.5143 L500,508.8023 L502,509.1532 L504,509.5662 L506,510.0405 L508,510.5751 L510,511.169 L512,511.8209 L514,512.5296 L516,513.2937 L518,514.1115 L520,514.9814 L522,515.9017 L524,516.8706 L526,517.886 L528,518.946 L530,520.0483 L532,521.1909 L534,522.3713 L536,523.5872 L538,524.8362 L540,526.1157 L542,527.4232 L544,528.756 L546,530.1115 L548,531.4868 L550,532.8793 L552,534.2862 L554,535.7045 L556,537.1315 L558,538.5643 L560,540 L562,541.4357 L564,542.8685 L566,544.2955 L568,545.7138 L570,547.1207 L572,548.5132 L574,549.8885 L576,551.244 L578,552.5768 L580,553.8843 L582,555.1638 L584,556.4128 L586,557.6287 L588,558.8091 L590,559.9517 L592,561.054 L594,562.114 L596,563.1294 L598,564.0983 L600,565.0186 L602,565.8885 L604,566.7063 L606,567.4704 L608,568.1791 L610,568.831 L612,569.4249 L614,569.9595 L616,570.4338 L618,570.8468 L620,571.1977 L622,571.4857 L624,571.7104 L626,571.8712 L628,571.9678 L630,572 L632,571.9678 L634,571.8712 L636,571.7104 L638,571.4857 L640,571.1977 L642,570.8468 L644,570.4338 L646,569.9595 L648,569.4249 L650,568.831 L652,568.1791 L654,567.4704 L656,566.7063 L658,565.8885 L660,565.0186 L662,564.0983 L664,563.1294 L666,562.114 L668,561.054 L670,559.9517 L672,558.8091 L674,557.6287 L676,556.4128 L678,555.1638 L680,553.8843 L682,552.5768 L684,551.244 L686,549.8885 L688,548.5132 L690,547.1207 L692,545.7138 L694,544.2955 L696,542.8685 L698,541.4357 L700,540" fill="none" stroke="#bd594a" stroke-width="5"/>
<path d="M175,301 V292 H315 V301" fill="none" stroke="#183249" stroke-width="2" data-wavelength="emitted"/>
<text x="245" y="278" font-size="22" text-anchor="middle" >λ emittiert</text>
<text x="80" y="410" font-size="25" text-anchor="start" >emittiertes Licht</text>
<path d="M210,491 V482 H490 V491" fill="none" stroke="#183249" stroke-width="2" data-wavelength="observed"/>
<text x="350" y="468" font-size="22" text-anchor="middle" >λ beobachtet</text>
<text x="80" y="602" font-size="25" text-anchor="start" >beobachtetes Licht</text>
<line x1="140" y1="628" x2="700" y2="628" stroke="#183249" stroke-width="2"/>
<line x1="140" y1="620" x2="140" y2="636" stroke="#183249" stroke-width="2"/>
<line x1="700" y1="620" x2="700" y2="636" stroke="#183249" stroke-width="2"/>
<text x="420" y="663" font-size="22" text-anchor="middle" >Gleiche Vergleichsstrecke</text>
<text x="188" y="719" font-size="25" text-anchor="start" >z =</text>
<text x="419" y="699" font-size="24" text-anchor="middle" >λ beobachtet − λ emittiert</text>
<line x1="278" y1="710" x2="560" y2="710" stroke="#183249" stroke-width="2"/>
<text x="419" y="741" font-size="22" text-anchor="middle" >λ emittiert</text>
<text x="582" y="719" font-size="25" text-anchor="start" >&gt; 0</text>
<defs>
<marker id="incoming-head" viewBox="0 0 12 12" refX="10" refY="6" markerWidth="12" markerHeight="12" orient="auto" markerUnits="userSpaceOnUse">
<path d="M1,1 L11,6 L1,11 Z" fill="#be7836"/>
</marker>
</defs>
<path data-cmb-ray="0" d="M1360,425 L1358.1667,425.1294 L1356.3333,425.4915 L1354.5,426.0125 L1352.6667,426.5819 L1350.8333,427.0706 L1349,427.3511 L1347.1667,427.3194 L1345.3333,426.9126 L1343.5,426.1223 L1341.6667,425 L1339.8333,423.6536 L1338,422.2361 L1336.1667,420.927 L1334.3333,419.909 L1332.5,419.3431 L1330.6667,419.3458 L1328.8333,419.9702 L1327,421.1958 L1325.1667,422.9267 L1323.3333,425 L1321.5,427.2027 L1319.6667,429.2957 L1317.8333,431.0423 L1316,432.2361 L1314.1667,432.7274 L1312.3333,432.4422 L1310.5,431.3925 L1308.6667,429.6765 L1306.8333,427.4687 L1305,425 L1303.1667,422.5313 L1301.3333,420.3235 L1299.5,418.6075 L1297.6667,417.5578 L1295.8333,417.2726 L1294,417.7639 L1292.1667,418.9577 L1290.3333,420.7043 L1288.5,422.7973 L1286.6667,425 L1284.8333,427.0733 L1283,428.8042 L1281.1667,430.0298 L1279.3333,430.6542 L1277.5,430.6569 L1275.6667,430.091 L1273.8333,429.073 L1272,427.7639 L1270.1667,426.3464 L1268.3333,425 L1266.5,423.8777 L1264.6667,423.0874 L1262.8333,422.6806 L1261,422.6489 L1259.1667,422.9294 L1257.3333,423.4181 L1255.5,423.9875 L1253.6667,424.5085 L1251.8333,424.8706 L1250,425" stroke="#be7836" stroke-width="3" fill="none" marker-end="url(#incoming-head)"/>
<path data-cmb-ray="1" d="M1310.2082,545.2082 L1308.8203,544.0033 L1307.2679,542.963 L1305.6031,542.035 L1303.9041,541.1413 L1302.2622,540.1904 L1300.7675,539.0925 L1299.4935,537.7737 L1298.4848,536.1897 L1297.7473,534.3345 L1297.2445,532.2445 L1296.9002,529.9961 L1296.6062,527.6974 L1296.2355,525.4754 L1295.659,523.4592 L1294.7627,521.7627 L1293.4645,520.4682 L1291.7266,519.6134 L1289.5636,519.1836 L1287.0433,519.1112 L1284.2809,519.2809 L1281.427,519.5421 L1278.6506,519.7257 L1276.1193,519.6643 L1273.9788,519.2121 L1272.335,518.2632 L1271.2403,516.7652 L1270.6862,514.7265 L1270.6032,512.2168 L1270.868,509.3593 L1271.3173,506.3173 L1271.7666,503.2752 L1272.0314,500.4178 L1271.9483,497.908 L1271.3943,495.8694 L1270.2996,494.3714 L1268.6558,493.4224 L1266.5153,492.9702 L1263.9839,492.9088 L1261.2076,493.0925 L1258.3537,493.3537 L1255.5912,493.5233 L1253.0709,493.4509 L1250.908,493.0212 L1249.1701,492.1663 L1247.8718,490.8718 L1246.9756,489.1754 L1246.399,487.1592 L1246.0284,484.9372 L1245.7343,482.6385 L1245.39,480.39 L1244.8873,478.3001 L1244.1497,476.4449 L1243.141,474.8609 L1241.8671,473.5421 L1240.3723,472.4441 L1238.7304,471.4933 L1237.0314,470.5996 L1235.3667,469.6716 L1233.8143,468.6313 L1232.4264,467.4264" stroke="#be7836" stroke-width="3" fill="none" marker-end="url(#incoming-head)"/>
<path data-cmb-ray="2" d="M1190,595 L1189.8706,593.1667 L1189.5085,591.3333 L1188.9875,589.5 L1188.4181,587.6667 L1187.9294,585.8333 L1187.6489,584 L1187.6806,582.1667 L1188.0874,580.3333 L1188.8777,578.5 L1190,576.6667 L1191.3464,574.8333 L1192.7639,573 L1194.073,571.1667 L1195.091,569.3333 L1195.6569,567.5 L1195.6542,565.6667 L1195.0298,563.8333 L1193.8042,562 L1192.0733,560.1667 L1190,558.3333 L1187.7973,556.5 L1185.7043,554.6667 L1183.9577,552.8333 L1182.7639,551 L1182.2726,549.1667 L1182.5578,547.3333 L1183.6075,545.5 L1185.3235,543.6667 L1187.5313,541.8333 L1190,540 L1192.4687,538.1667 L1194.6765,536.3333 L1196.3925,534.5 L1197.4422,532.6667 L1197.7274,530.8333 L1197.2361,529 L1196.0423,527.1667 L1194.2957,525.3333 L1192.2027,523.5 L1190,521.6667 L1187.9267,519.8333 L1186.1958,518 L1184.9702,516.1667 L1184.3458,514.3333 L1184.3431,512.5 L1184.909,510.6667 L1185.927,508.8333 L1187.2361,507 L1188.6536,505.1667 L1190,503.3333 L1191.1223,501.5 L1191.9126,499.6667 L1192.3194,497.8333 L1192.3511,496 L1192.0706,494.1667 L1191.5819,492.3333 L1191.0125,490.5 L1190.4915,488.6667 L1190.1294,486.8333 L1190,485" stroke="#be7836" stroke-width="3" fill="none" marker-end="url(#incoming-head)"/>
<path data-cmb-ray="3" d="M1069.7918,545.2082 L1070.9967,543.8203 L1072.037,542.2679 L1072.965,540.6031 L1073.8587,538.9041 L1074.8096,537.2622 L1075.9075,535.7675 L1077.2263,534.4935 L1078.8103,533.4848 L1080.6655,532.7473 L1082.7555,532.2445 L1085.0039,531.9002 L1087.3026,531.6062 L1089.5246,531.2355 L1091.5408,530.659 L1093.2373,529.7627 L1094.5318,528.4645 L1095.3866,526.7266 L1095.8164,524.5636 L1095.8888,522.0433 L1095.7191,519.2809 L1095.4579,516.427 L1095.2743,513.6506 L1095.3357,511.1193 L1095.7879,508.9788 L1096.7368,507.335 L1098.2348,506.2403 L1100.2735,505.6862 L1102.7832,505.6032 L1105.6407,505.868 L1108.6827,506.3173 L1111.7248,506.7666 L1114.5822,507.0314 L1117.092,506.9483 L1119.1306,506.3943 L1120.6286,505.2996 L1121.5776,503.6558 L1122.0298,501.5153 L1122.0912,498.9839 L1121.9075,496.2076 L1121.6463,493.3537 L1121.4767,490.5912 L1121.5491,488.0709 L1121.9788,485.908 L1122.8337,484.1701 L1124.1282,482.8718 L1125.8246,481.9756 L1127.8408,481.399 L1130.0628,481.0284 L1132.3615,480.7343 L1134.61,480.39 L1136.6999,479.8873 L1138.5551,479.1497 L1140.1391,478.141 L1141.4579,476.8671 L1142.5559,475.3723 L1143.5067,473.7304 L1144.4004,472.0314 L1145.3284,470.3667 L1146.3687,468.8143 L1147.5736,467.4264" stroke="#be7836" stroke-width="3" fill="none" marker-end="url(#incoming-head)"/>
<path data-cmb-ray="4" d="M1020,425 L1021.8333,424.8706 L1023.6667,424.5085 L1025.5,423.9875 L1027.3333,423.4181 L1029.1667,422.9294 L1031,422.6489 L1032.8333,422.6806 L1034.6667,423.0874 L1036.5,423.8777 L1038.3333,425 L1040.1667,426.3464 L1042,427.7639 L1043.8333,429.073 L1045.6667,430.091 L1047.5,430.6569 L1049.3333,430.6542 L1051.1667,430.0298 L1053,428.8042 L1054.8333,427.0733 L1056.6667,425 L1058.5,422.7973 L1060.3333,420.7043 L1062.1667,418.9577 L1064,417.7639 L1065.8333,417.2726 L1067.6667,417.5578 L1069.5,418.6075 L1071.3333,420.3235 L1073.1667,422.5313 L1075,425 L1076.8333,427.4687 L1078.6667,429.6765 L1080.5,431.3925 L1082.3333,432.4422 L1084.1667,432.7274 L1086,432.2361 L1087.8333,431.0423 L1089.6667,429.2957 L1091.5,427.2027 L1093.3333,425 L1095.1667,422.9267 L1097,421.1958 L1098.8333,419.9702 L1100.6667,419.3458 L1102.5,419.3431 L1104.3333,419.909 L1106.1667,420.927 L1108,422.2361 L1109.8333,423.6536 L1111.6667,425 L1113.5,426.1223 L1115.3333,426.9126 L1117.1667,427.3194 L1119,427.3511 L1120.8333,427.0706 L1122.6667,426.5819 L1124.5,426.0125 L1126.3333,425.4915 L1128.1667,425.1294 L1130,425" stroke="#be7836" stroke-width="3" fill="none" marker-end="url(#incoming-head)"/>
<path data-cmb-ray="5" d="M1069.7918,304.7918 L1071.1797,305.9967 L1072.7321,307.037 L1074.3969,307.965 L1076.0959,308.8587 L1077.7378,309.8096 L1079.2325,310.9075 L1080.5065,312.2263 L1081.5152,313.8103 L1082.2527,315.6655 L1082.7555,317.7555 L1083.0998,320.0039 L1083.3938,322.3026 L1083.7645,324.5246 L1084.341,326.5408 L1085.2373,328.2373 L1086.5355,329.5318 L1088.2734,330.3866 L1090.4364,330.8164 L1092.9567,330.8888 L1095.7191,330.7191 L1098.573,330.4579 L1101.3494,330.2743 L1103.8807,330.3357 L1106.0212,330.7879 L1107.665,331.7368 L1108.7597,333.2348 L1109.3138,335.2735 L1109.3968,337.7832 L1109.132,340.6407 L1108.6827,343.6827 L1108.2334,346.7248 L1107.9686,349.5822 L1108.0517,352.092 L1108.6057,354.1306 L1109.7004,355.6286 L1111.3442,356.5776 L1113.4847,357.0298 L1116.0161,357.0912 L1118.7924,356.9075 L1121.6463,356.6463 L1124.4088,356.4767 L1126.9291,356.5491 L1129.092,356.9788 L1130.8299,357.8337 L1132.1282,359.1282 L1133.0244,360.8246 L1133.601,362.8408 L1133.9716,365.0628 L1134.2657,367.3615 L1134.61,369.61 L1135.1127,371.6999 L1135.8503,373.5551 L1136.859,375.1391 L1138.1329,376.4579 L1139.6277,377.5559 L1141.2696,378.5067 L1142.9686,379.4004 L1144.6333,380.3284 L1146.1857,381.3687 L1147.5736,382.5736" stroke="#be7836" stroke-width="3" fill="none" marker-end="url(#incoming-head)"/>
<path data-cmb-ray="6" d="M1190,255 L1190.1294,256.8333 L1190.4915,258.6667 L1191.0125,260.5 L1191.5819,262.3333 L1192.0706,264.1667 L1192.3511,266 L1192.3194,267.8333 L1191.9126,269.6667 L1191.1223,271.5 L1190,273.3333 L1188.6536,275.1667 L1187.2361,277 L1185.927,278.8333 L1184.909,280.6667 L1184.3431,282.5 L1184.3458,284.3333 L1184.9702,286.1667 L1186.1958,288 L1187.9267,289.8333 L1190,291.6667 L1192.2027,293.5 L1194.2957,295.3333 L1196.0423,297.1667 L1197.2361,299 L1197.7274,300.8333 L1197.4422,302.6667 L1196.3925,304.5 L1194.6765,306.3333 L1192.4687,308.1667 L1190,310 L1187.5313,311.8333 L1185.3235,313.6667 L1183.6075,315.5 L1182.5578,317.3333 L1182.2726,319.1667 L1182.7639,321 L1183.9577,322.8333 L1185.7043,324.6667 L1187.7973,326.5 L1190,328.3333 L1192.0733,330.1667 L1193.8042,332 L1195.0298,333.8333 L1195.6542,335.6667 L1195.6569,337.5 L1195.091,339.3333 L1194.073,341.1667 L1192.7639,343 L1191.3464,344.8333 L1190,346.6667 L1188.8777,348.5 L1188.0874,350.3333 L1187.6806,352.1667 L1187.6489,354 L1187.9294,355.8333 L1188.4181,357.6667 L1188.9875,359.5 L1189.5085,361.3333 L1189.8706,363.1667 L1190,365" stroke="#be7836" stroke-width="3" fill="none" marker-end="url(#incoming-head)"/>
<path data-cmb-ray="7" d="M1310.2082,304.7918 L1309.0033,306.1797 L1307.963,307.7321 L1307.035,309.3969 L1306.1413,311.0959 L1305.1904,312.7378 L1304.0925,314.2325 L1302.7737,315.5065 L1301.1897,316.5152 L1299.3345,317.2527 L1297.2445,317.7555 L1294.9961,318.0998 L1292.6974,318.3938 L1290.4754,318.7645 L1288.4592,319.341 L1286.7627,320.2373 L1285.4682,321.5355 L1284.6134,323.2734 L1284.1836,325.4364 L1284.1112,327.9567 L1284.2809,330.7191 L1284.5421,333.573 L1284.7257,336.3494 L1284.6643,338.8807 L1284.2121,341.0212 L1283.2632,342.665 L1281.7652,343.7597 L1279.7265,344.3138 L1277.2168,344.3968 L1274.3593,344.132 L1271.3173,343.6827 L1268.2752,343.2334 L1265.4178,342.9686 L1262.908,343.0517 L1260.8694,343.6057 L1259.3714,344.7004 L1258.4224,346.3442 L1257.9702,348.4847 L1257.9088,351.0161 L1258.0925,353.7924 L1258.3537,356.6463 L1258.5233,359.4088 L1258.4509,361.9291 L1258.0212,364.092 L1257.1663,365.8299 L1255.8718,367.1282 L1254.1754,368.0244 L1252.1592,368.601 L1249.9372,368.9716 L1247.6385,369.2657 L1245.39,369.61 L1243.3001,370.1127 L1241.4449,370.8503 L1239.8609,371.859 L1238.5421,373.1329 L1237.4441,374.6277 L1236.4933,376.2696 L1235.5996,377.9686 L1234.6716,379.6333 L1233.6313,381.1857 L1232.4264,382.5736" stroke="#be7836" stroke-width="3" fill="none" marker-end="url(#incoming-head)"/>
<circle cx="1190" cy="425" r="24" fill="#bedce9" stroke="#183249" stroke-width="2" data-observer="true"/>
<text x="1190" y="643" font-size="25" text-anchor="middle" >Beobachter</text>
<text x="1190" y="689" font-size="25" text-anchor="middle" >Mikrowellen aus allen Richtungen</text>
<text x="1190" y="731" font-size="25" text-anchor="middle" >Relikt der heißen, dichten Phase</text>
<text x="800" y="797" font-size="27" text-anchor="middle" >Früher heiß und dicht  →  Expansion und Abkühlung  →  heute kühler</text>
<text x="800" y="843" font-size="27" text-anchor="middle" >Beide Beobachtungen stützen das heiße Urknallmodell.</text>
<text x="800" y="880" font-size="21" text-anchor="middle" >Qualitative Schemata; kein zentraler Explosionsort.</text>
</g>
</svg>
