<svg xmlns="http://www.w3.org/2000/svg" width="1500" height="1700" viewBox="0 0 1500 1700"><title>Code-Sonne für den Standardcode: mRNA-Codons</title><desc>64 Codons in drei Basenringen. Von innen nach außen: erste, zweite und dritte mRNA-Base, in fünf Strich nach drei Strich Richtung gelesen; außen Aminosäure oder Stopp.</desc><rect width="1500" height="1700" fill="white"/>
<text x="750" y="55" text-anchor="middle" font-family="sans-serif" font-size="36" font-weight="bold">Code-Sonne · Standardcode</text>
<text x="750" y="100" text-anchor="middle" font-family="sans-serif" font-size="24">mRNA-Codon 5′→3′ · von innen nach außen lesen</text>
<path d="M 750.000 585.000 A 205 205 0 0 1 955.000 790.000 L 815.000 790.000 A 65 65 0 0 0 750.000 725.000 Z" fill="#e5f2fa" stroke="#71808b" stroke-width="1.3"/>
<text x="845.46" y="702.54" text-anchor="middle" font-family="sans-serif" font-size="40" fill="#142331">U</text>
<path d="M 955.000 790.000 A 205 205 0 0 1 750.000 995.000 L 750.000 855.000 A 65 65 0 0 0 815.000 790.000 Z" fill="#eef6dc" stroke="#71808b" stroke-width="1.3"/>
<text x="845.46" y="893.46" text-anchor="middle" font-family="sans-serif" font-size="40" fill="#142331">C</text>
<path d="M 750.000 995.000 A 205 205 0 0 1 545.000 790.000 L 685.000 790.000 A 65 65 0 0 0 750.000 855.000 Z" fill="#fff0d7" stroke="#71808b" stroke-width="1.3"/>
<text x="654.54" y="893.46" text-anchor="middle" font-family="sans-serif" font-size="40" fill="#142331">A</text>
<path d="M 545.000 790.000 A 205 205 0 0 1 750.000 585.000 L 750.000 725.000 A 65 65 0 0 0 685.000 790.000 Z" fill="#f5e7f4" stroke="#71808b" stroke-width="1.3"/>
<text x="654.54" y="702.54" text-anchor="middle" font-family="sans-serif" font-size="40" fill="#142331">G</text>
<path d="M 750.000 435.000 A 355 355 0 0 1 885.853 462.023 L 828.450 600.605 A 205 205 0 0 0 750.000 585.000 Z" fill="#e5f2fa" stroke="#71808b" stroke-width="1.3"/>
<text x="804.63" y="523.38" text-anchor="middle" font-family="sans-serif" font-size="40" fill="#142331">U</text>
<path d="M 885.853 462.023 A 355 355 0 0 1 1001.023 538.977 L 894.957 645.043 A 205 205 0 0 0 828.450 600.605 Z" fill="#e5f2fa" stroke="#71808b" stroke-width="1.3"/>
<text x="905.56" y="565.19" text-anchor="middle" font-family="sans-serif" font-size="40" fill="#142331">C</text>
<path d="M 1001.023 538.977 A 355 355 0 0 1 1077.977 654.147 L 939.395 711.550 A 205 205 0 0 0 894.957 645.043 Z" fill="#e5f2fa" stroke="#71808b" stroke-width="1.3"/>
<text x="982.81" y="642.44" text-anchor="middle" font-family="sans-serif" font-size="40" fill="#142331">A</text>
<path d="M 1077.977 654.147 A 355 355 0 0 1 1105.000 790.000 L 955.000 790.000 A 205 205 0 0 0 939.395 711.550 Z" fill="#e5f2fa" stroke="#71808b" stroke-width="1.3"/>
<text x="1024.62" y="743.37" text-anchor="middle" font-family="sans-serif" font-size="40" fill="#142331">G</text>
<path d="M 1105.000 790.000 A 355 355 0 0 1 1077.977 925.853 L 939.395 868.450 A 205 205 0 0 0 955.000 790.000 Z" fill="#eef6dc" stroke="#71808b" stroke-width="1.3"/>
<text x="1024.62" y="852.63" text-anchor="middle" font-family="sans-serif" font-size="40" fill="#142331">U</text>
<path d="M 1077.977 925.853 A 355 355 0 0 1 1001.023 1041.023 L 894.957 934.957 A 205 205 0 0 0 939.395 868.450 Z" fill="#eef6dc" stroke="#71808b" stroke-width="1.3"/>
<text x="982.81" y="953.56" text-anchor="middle" font-family="sans-serif" font-size="40" fill="#142331">C</text>
<path d="M 1001.023 1041.023 A 355 355 0 0 1 885.853 1117.977 L 828.450 979.395 A 205 205 0 0 0 894.957 934.957 Z" fill="#eef6dc" stroke="#71808b" stroke-width="1.3"/>
<text x="905.56" y="1030.81" text-anchor="middle" font-family="sans-serif" font-size="40" fill="#142331">A</text>
<path d="M 885.853 1117.977 A 355 355 0 0 1 750.000 1145.000 L 750.000 995.000 A 205 205 0 0 0 828.450 979.395 Z" fill="#eef6dc" stroke="#71808b" stroke-width="1.3"/>
<text x="804.63" y="1072.62" text-anchor="middle" font-family="sans-serif" font-size="40" fill="#142331">G</text>
<path d="M 750.000 1145.000 A 355 355 0 0 1 614.147 1117.977 L 671.550 979.395 A 205 205 0 0 0 750.000 995.000 Z" fill="#fff0d7" stroke="#71808b" stroke-width="1.3"/>
<text x="695.37" y="1072.62" text-anchor="middle" font-family="sans-serif" font-size="40" fill="#142331">U</text>
<path d="M 614.147 1117.977 A 355 355 0 0 1 498.977 1041.023 L 605.043 934.957 A 205 205 0 0 0 671.550 979.395 Z" fill="#fff0d7" stroke="#71808b" stroke-width="1.3"/>
<text x="594.44" y="1030.81" text-anchor="middle" font-family="sans-serif" font-size="40" fill="#142331">C</text>
<path d="M 498.977 1041.023 A 355 355 0 0 1 422.023 925.853 L 560.605 868.450 A 205 205 0 0 0 605.043 934.957 Z" fill="#fff0d7" stroke="#71808b" stroke-width="1.3"/>
<text x="517.19" y="953.56" text-anchor="middle" font-family="sans-serif" font-size="40" fill="#142331">A</text>
<path d="M 422.023 925.853 A 355 355 0 0 1 395.000 790.000 L 545.000 790.000 A 205 205 0 0 0 560.605 868.450 Z" fill="#fff0d7" stroke="#71808b" stroke-width="1.3"/>
<text x="475.38" y="852.63" text-anchor="middle" font-family="sans-serif" font-size="40" fill="#142331">G</text>
<path d="M 395.000 790.000 A 355 355 0 0 1 422.023 654.147 L 560.605 711.550 A 205 205 0 0 0 545.000 790.000 Z" fill="#f5e7f4" stroke="#71808b" stroke-width="1.3"/>
<text x="475.38" y="743.37" text-anchor="middle" font-family="sans-serif" font-size="40" fill="#142331">U</text>
<path d="M 422.023 654.147 A 355 355 0 0 1 498.977 538.977 L 605.043 645.043 A 205 205 0 0 0 560.605 711.550 Z" fill="#f5e7f4" stroke="#71808b" stroke-width="1.3"/>
<text x="517.19" y="642.44" text-anchor="middle" font-family="sans-serif" font-size="40" fill="#142331">C</text>
<path d="M 498.977 538.977 A 355 355 0 0 1 614.147 462.023 L 671.550 600.605 A 205 205 0 0 0 605.043 645.043 Z" fill="#f5e7f4" stroke="#71808b" stroke-width="1.3"/>
<text x="594.44" y="565.19" text-anchor="middle" font-family="sans-serif" font-size="40" fill="#142331">A</text>
<path d="M 614.147 462.023 A 355 355 0 0 1 750.000 435.000 L 750.000 585.000 A 205 205 0 0 0 671.550 600.605 Z" fill="#f5e7f4" stroke="#71808b" stroke-width="1.3"/>
<text x="695.37" y="523.38" text-anchor="middle" font-family="sans-serif" font-size="40" fill="#142331">G</text>
<path d="M 750.000 305.000 A 485 485 0 0 1 797.538 307.335 L 784.796 436.709 A 355 355 0 0 0 750.000 435.000 Z" fill="#e5f2fa" stroke="#71808b" stroke-width="1.3"/>
<text x="770.61" y="378.51" text-anchor="middle" font-family="sans-serif" font-size="22" fill="#142331">U</text>
<path d="M 797.538 307.335 A 485 485 0 0 1 844.619 314.319 L 819.257 441.821 A 355 355 0 0 0 784.796 436.709 Z" fill="#e5f2fa" stroke="#71808b" stroke-width="1.3"/>
<text x="811.63" y="382.55" text-anchor="middle" font-family="sans-serif" font-size="22" fill="#142331">C</text>
<path d="M 844.619 314.319 A 485 485 0 0 1 890.788 325.884 L 853.051 450.286 A 355 355 0 0 0 819.257 441.821 Z" fill="#e5f2fa" stroke="#71808b" stroke-width="1.3"/>
<text x="852.05" y="390.59" text-anchor="middle" font-family="sans-serif" font-size="22" fill="#142331">A</text>
<path d="M 890.788 325.884 A 485 485 0 0 1 935.601 341.918 L 885.853 462.023 A 355 355 0 0 0 853.051 450.286 Z" fill="#e5f2fa" stroke="#71808b" stroke-width="1.3"/>
<text x="891.49" y="402.55" text-anchor="middle" font-family="sans-serif" font-size="22" fill="#142331">G</text>
<path d="M 935.601 341.918 A 485 485 0 0 1 978.627 362.268 L 917.346 476.918 A 355 355 0 0 0 885.853 462.023 Z" fill="#e5f2fa" stroke="#71808b" stroke-width="1.3"/>
<text x="929.57" y="418.32" text-anchor="middle" font-family="sans-serif" font-size="22" fill="#142331">U</text>
<path d="M 978.627 362.268 A 485 485 0 0 1 1019.452 386.737 L 947.227 494.828 A 355 355 0 0 0 917.346 476.918 Z" fill="#e5f2fa" stroke="#71808b" stroke-width="1.3"/>
<text x="965.92" y="437.75" text-anchor="middle" font-family="sans-serif" font-size="22" fill="#142331">C</text>
<path d="M 1019.452 386.737 A 485 485 0 0 1 1057.681 415.090 L 975.210 515.581 A 355 355 0 0 0 947.227 494.828 Z" fill="#e5f2fa" stroke="#71808b" stroke-width="1.3"/>
<text x="1000.19" y="460.65" text-anchor="middle" font-family="sans-serif" font-size="22" fill="#142331">A</text>
<path d="M 1057.681 415.090 A 485 485 0 0 1 1092.947 447.053 L 1001.023 538.977 A 355 355 0 0 0 975.210 515.581 Z" fill="#e5f2fa" stroke="#71808b" stroke-width="1.3"/>
<text x="1032.05" y="486.80" text-anchor="middle" font-family="sans-serif" font-size="22" fill="#142331">G</text>
<path d="M 1092.947 447.053 A 485 485 0 0 1 1124.910 482.319 L 1024.419 564.790 A 355 355 0 0 0 1001.023 538.977 Z" fill="#e5f2fa" stroke="#71808b" stroke-width="1.3"/>
<text x="1061.20" y="515.95" text-anchor="middle" font-family="sans-serif" font-size="22" fill="#142331">U</text>
<path d="M 1124.910 482.319 A 485 485 0 0 1 1153.263 520.548 L 1045.172 592.773 A 355 355 0 0 0 1024.419 564.790 Z" fill="#e5f2fa" stroke="#71808b" stroke-width="1.3"/>
<text x="1087.35" y="547.81" text-anchor="middle" font-family="sans-serif" font-size="22" fill="#142331">C</text>
<path d="M 1153.263 520.548 A 485 485 0 0 1 1177.732 561.373 L 1063.082 622.654 A 355 355 0 0 0 1045.172 592.773 Z" fill="#e5f2fa" stroke="#71808b" stroke-width="1.3"/>
<text x="1110.25" y="582.08" text-anchor="middle" font-family="sans-serif" font-size="22" fill="#142331">A</text>
<path d="M 1177.732 561.373 A 485 485 0 0 1 1198.082 604.399 L 1077.977 654.147 A 355 355 0 0 0 1063.082 622.654 Z" fill="#e5f2fa" stroke="#71808b" stroke-width="1.3"/>
<text x="1129.68" y="618.43" text-anchor="middle" font-family="sans-serif" font-size="22" fill="#142331">G</text>
<path d="M 1198.082 604.399 A 485 485 0 0 1 1214.116 649.212 L 1089.714 686.949 A 355 355 0 0 0 1077.977 654.147 Z" fill="#e5f2fa" stroke="#71808b" stroke-width="1.3"/>
<text x="1145.45" y="656.51" text-anchor="middle" font-family="sans-serif" font-size="22" fill="#142331">U</text>
<path d="M 1214.116 649.212 A 485 485 0 0 1 1225.681 695.381 L 1098.179 720.743 A 355 355 0 0 0 1089.714 686.949 Z" fill="#e5f2fa" stroke="#71808b" stroke-width="1.3"/>
<text x="1157.41" y="695.95" text-anchor="middle" font-family="sans-serif" font-size="22" fill="#142331">C</text>
<path d="M 1225.681 695.381 A 485 485 0 0 1 1232.665 742.462 L 1103.291 755.204 A 355 355 0 0 0 1098.179 720.743 Z" fill="#e5f2fa" stroke="#71808b" stroke-width="1.3"/>
<text x="1165.45" y="736.37" text-anchor="middle" font-family="sans-serif" font-size="22" fill="#142331">A</text>
<path d="M 1232.665 742.462 A 485 485 0 0 1 1235.000 790.000 L 1105.000 790.000 A 355 355 0 0 0 1103.291 755.204 Z" fill="#e5f2fa" stroke="#71808b" stroke-width="1.3"/>
<text x="1169.49" y="777.39" text-anchor="middle" font-family="sans-serif" font-size="22" fill="#142331">G</text>
<path d="M 1235.000 790.000 A 485 485 0 0 1 1232.665 837.538 L 1103.291 824.796 A 355 355 0 0 0 1105.000 790.000 Z" fill="#eef6dc" stroke="#71808b" stroke-width="1.3"/>
<text x="1169.49" y="818.61" text-anchor="middle" font-family="sans-serif" font-size="22" fill="#142331">U</text>
<path d="M 1232.665 837.538 A 485 485 0 0 1 1225.681 884.619 L 1098.179 859.257 A 355 355 0 0 0 1103.291 824.796 Z" fill="#eef6dc" stroke="#71808b" stroke-width="1.3"/>
<text x="1165.45" y="859.63" text-anchor="middle" font-family="sans-serif" font-size="22" fill="#142331">C</text>
<path d="M 1225.681 884.619 A 485 485 0 0 1 1214.116 930.788 L 1089.714 893.051 A 355 355 0 0 0 1098.179 859.257 Z" fill="#eef6dc" stroke="#71808b" stroke-width="1.3"/>
<text x="1157.41" y="900.05" text-anchor="middle" font-family="sans-serif" font-size="22" fill="#142331">A</text>
<path d="M 1214.116 930.788 A 485 485 0 0 1 1198.082 975.601 L 1077.977 925.853 A 355 355 0 0 0 1089.714 893.051 Z" fill="#eef6dc" stroke="#71808b" stroke-width="1.3"/>
<text x="1145.45" y="939.49" text-anchor="middle" font-family="sans-serif" font-size="22" fill="#142331">G</text>
<path d="M 1198.082 975.601 A 485 485 0 0 1 1177.732 1018.627 L 1063.082 957.346 A 355 355 0 0 0 1077.977 925.853 Z" fill="#eef6dc" stroke="#71808b" stroke-width="1.3"/>
<text x="1129.68" y="977.57" text-anchor="middle" font-family="sans-serif" font-size="22" fill="#142331">U</text>
<path d="M 1177.732 1018.627 A 485 485 0 0 1 1153.263 1059.452 L 1045.172 987.227 A 355 355 0 0 0 1063.082 957.346 Z" fill="#eef6dc" stroke="#71808b" stroke-width="1.3"/>
<text x="1110.25" y="1013.92" text-anchor="middle" font-family="sans-serif" font-size="22" fill="#142331">C</text>
<path d="M 1153.263 1059.452 A 485 485 0 0 1 1124.910 1097.681 L 1024.419 1015.210 A 355 355 0 0 0 1045.172 987.227 Z" fill="#eef6dc" stroke="#71808b" stroke-width="1.3"/>
<text x="1087.35" y="1048.19" text-anchor="middle" font-family="sans-serif" font-size="22" fill="#142331">A</text>
<path d="M 1124.910 1097.681 A 485 485 0 0 1 1092.947 1132.947 L 1001.023 1041.023 A 355 355 0 0 0 1024.419 1015.210 Z" fill="#eef6dc" stroke="#71808b" stroke-width="1.3"/>
<text x="1061.20" y="1080.05" text-anchor="middle" font-family="sans-serif" font-size="22" fill="#142331">G</text>
<path d="M 1092.947 1132.947 A 485 485 0 0 1 1057.681 1164.910 L 975.210 1064.419 A 355 355 0 0 0 1001.023 1041.023 Z" fill="#eef6dc" stroke="#71808b" stroke-width="1.3"/>
<text x="1032.05" y="1109.20" text-anchor="middle" font-family="sans-serif" font-size="22" fill="#142331">U</text>
<path d="M 1057.681 1164.910 A 485 485 0 0 1 1019.452 1193.263 L 947.227 1085.172 A 355 355 0 0 0 975.210 1064.419 Z" fill="#eef6dc" stroke="#71808b" stroke-width="1.3"/>
<text x="1000.19" y="1135.35" text-anchor="middle" font-family="sans-serif" font-size="22" fill="#142331">C</text>
<path d="M 1019.452 1193.263 A 485 485 0 0 1 978.627 1217.732 L 917.346 1103.082 A 355 355 0 0 0 947.227 1085.172 Z" fill="#eef6dc" stroke="#71808b" stroke-width="1.3"/>
<text x="965.92" y="1158.25" text-anchor="middle" font-family="sans-serif" font-size="22" fill="#142331">A</text>
<path d="M 978.627 1217.732 A 485 485 0 0 1 935.601 1238.082 L 885.853 1117.977 A 355 355 0 0 0 917.346 1103.082 Z" fill="#eef6dc" stroke="#71808b" stroke-width="1.3"/>
<text x="929.57" y="1177.68" text-anchor="middle" font-family="sans-serif" font-size="22" fill="#142331">G</text>
<path d="M 935.601 1238.082 A 485 485 0 0 1 890.788 1254.116 L 853.051 1129.714 A 355 355 0 0 0 885.853 1117.977 Z" fill="#eef6dc" stroke="#71808b" stroke-width="1.3"/>
<text x="891.49" y="1193.45" text-anchor="middle" font-family="sans-serif" font-size="22" fill="#142331">U</text>
<path d="M 890.788 1254.116 A 485 485 0 0 1 844.619 1265.681 L 819.257 1138.179 A 355 355 0 0 0 853.051 1129.714 Z" fill="#eef6dc" stroke="#71808b" stroke-width="1.3"/>
<text x="852.05" y="1205.41" text-anchor="middle" font-family="sans-serif" font-size="22" fill="#142331">C</text>
<path d="M 844.619 1265.681 A 485 485 0 0 1 797.538 1272.665 L 784.796 1143.291 A 355 355 0 0 0 819.257 1138.179 Z" fill="#eef6dc" stroke="#71808b" stroke-width="1.3"/>
<text x="811.63" y="1213.45" text-anchor="middle" font-family="sans-serif" font-size="22" fill="#142331">A</text>
<path d="M 797.538 1272.665 A 485 485 0 0 1 750.000 1275.000 L 750.000 1145.000 A 355 355 0 0 0 784.796 1143.291 Z" fill="#eef6dc" stroke="#71808b" stroke-width="1.3"/>
<text x="770.61" y="1217.49" text-anchor="middle" font-family="sans-serif" font-size="22" fill="#142331">G</text>
<path d="M 750.000 1275.000 A 485 485 0 0 1 702.462 1272.665 L 715.204 1143.291 A 355 355 0 0 0 750.000 1145.000 Z" fill="#fff0d7" stroke="#71808b" stroke-width="1.3"/>
<text x="729.39" y="1217.49" text-anchor="middle" font-family="sans-serif" font-size="22" fill="#142331">U</text>
<path d="M 702.462 1272.665 A 485 485 0 0 1 655.381 1265.681 L 680.743 1138.179 A 355 355 0 0 0 715.204 1143.291 Z" fill="#fff0d7" stroke="#71808b" stroke-width="1.3"/>
<text x="688.37" y="1213.45" text-anchor="middle" font-family="sans-serif" font-size="22" fill="#142331">C</text>
<path d="M 655.381 1265.681 A 485 485 0 0 1 609.212 1254.116 L 646.949 1129.714 A 355 355 0 0 0 680.743 1138.179 Z" fill="#fff0d7" stroke="#71808b" stroke-width="1.3"/>
<text x="647.95" y="1205.41" text-anchor="middle" font-family="sans-serif" font-size="22" fill="#142331">A</text>
<path d="M 609.212 1254.116 A 485 485 0 0 1 564.399 1238.082 L 614.147 1117.977 A 355 355 0 0 0 646.949 1129.714 Z" fill="#fff0d7" stroke="#71808b" stroke-width="1.3"/>
<text x="608.51" y="1193.45" text-anchor="middle" font-family="sans-serif" font-size="22" fill="#142331">G</text>
<path d="M 564.399 1238.082 A 485 485 0 0 1 521.373 1217.732 L 582.654 1103.082 A 355 355 0 0 0 614.147 1117.977 Z" fill="#fff0d7" stroke="#71808b" stroke-width="1.3"/>
<text x="570.43" y="1177.68" text-anchor="middle" font-family="sans-serif" font-size="22" fill="#142331">U</text>
<path d="M 521.373 1217.732 A 485 485 0 0 1 480.548 1193.263 L 552.773 1085.172 A 355 355 0 0 0 582.654 1103.082 Z" fill="#fff0d7" stroke="#71808b" stroke-width="1.3"/>
<text x="534.08" y="1158.25" text-anchor="middle" font-family="sans-serif" font-size="22" fill="#142331">C</text>
<path d="M 480.548 1193.263 A 485 485 0 0 1 442.319 1164.910 L 524.790 1064.419 A 355 355 0 0 0 552.773 1085.172 Z" fill="#fff0d7" stroke="#71808b" stroke-width="1.3"/>
<text x="499.81" y="1135.35" text-anchor="middle" font-family="sans-serif" font-size="22" fill="#142331">A</text>
<path d="M 442.319 1164.910 A 485 485 0 0 1 407.053 1132.947 L 498.977 1041.023 A 355 355 0 0 0 524.790 1064.419 Z" fill="#fff0d7" stroke="#71808b" stroke-width="1.3"/>
<text x="467.95" y="1109.20" text-anchor="middle" font-family="sans-serif" font-size="22" fill="#142331">G</text>
<path d="M 407.053 1132.947 A 485 485 0 0 1 375.090 1097.681 L 475.581 1015.210 A 355 355 0 0 0 498.977 1041.023 Z" fill="#fff0d7" stroke="#71808b" stroke-width="1.3"/>
<text x="438.80" y="1080.05" text-anchor="middle" font-family="sans-serif" font-size="22" fill="#142331">U</text>
<path d="M 375.090 1097.681 A 485 485 0 0 1 346.737 1059.452 L 454.828 987.227 A 355 355 0 0 0 475.581 1015.210 Z" fill="#fff0d7" stroke="#71808b" stroke-width="1.3"/>
<text x="412.65" y="1048.19" text-anchor="middle" font-family="sans-serif" font-size="22" fill="#142331">C</text>
<path d="M 346.737 1059.452 A 485 485 0 0 1 322.268 1018.627 L 436.918 957.346 A 355 355 0 0 0 454.828 987.227 Z" fill="#fff0d7" stroke="#71808b" stroke-width="1.3"/>
<text x="389.75" y="1013.92" text-anchor="middle" font-family="sans-serif" font-size="22" fill="#142331">A</text>
<path d="M 322.268 1018.627 A 485 485 0 0 1 301.918 975.601 L 422.023 925.853 A 355 355 0 0 0 436.918 957.346 Z" fill="#fff0d7" stroke="#71808b" stroke-width="1.3"/>
<text x="370.32" y="977.57" text-anchor="middle" font-family="sans-serif" font-size="22" fill="#142331">G</text>
<path d="M 301.918 975.601 A 485 485 0 0 1 285.884 930.788 L 410.286 893.051 A 355 355 0 0 0 422.023 925.853 Z" fill="#fff0d7" stroke="#71808b" stroke-width="1.3"/>
<text x="354.55" y="939.49" text-anchor="middle" font-family="sans-serif" font-size="22" fill="#142331">U</text>
<path d="M 285.884 930.788 A 485 485 0 0 1 274.319 884.619 L 401.821 859.257 A 355 355 0 0 0 410.286 893.051 Z" fill="#fff0d7" stroke="#71808b" stroke-width="1.3"/>
<text x="342.59" y="900.05" text-anchor="middle" font-family="sans-serif" font-size="22" fill="#142331">C</text>
<path d="M 274.319 884.619 A 485 485 0 0 1 267.335 837.538 L 396.709 824.796 A 355 355 0 0 0 401.821 859.257 Z" fill="#fff0d7" stroke="#71808b" stroke-width="1.3"/>
<text x="334.55" y="859.63" text-anchor="middle" font-family="sans-serif" font-size="22" fill="#142331">A</text>
<path d="M 267.335 837.538 A 485 485 0 0 1 265.000 790.000 L 395.000 790.000 A 355 355 0 0 0 396.709 824.796 Z" fill="#fff0d7" stroke="#71808b" stroke-width="1.3"/>
<text x="330.51" y="818.61" text-anchor="middle" font-family="sans-serif" font-size="22" fill="#142331">G</text>
<path d="M 265.000 790.000 A 485 485 0 0 1 267.335 742.462 L 396.709 755.204 A 355 355 0 0 0 395.000 790.000 Z" fill="#f5e7f4" stroke="#71808b" stroke-width="1.3"/>
<text x="330.51" y="777.39" text-anchor="middle" font-family="sans-serif" font-size="22" fill="#142331">U</text>
<path d="M 267.335 742.462 A 485 485 0 0 1 274.319 695.381 L 401.821 720.743 A 355 355 0 0 0 396.709 755.204 Z" fill="#f5e7f4" stroke="#71808b" stroke-width="1.3"/>
<text x="334.55" y="736.37" text-anchor="middle" font-family="sans-serif" font-size="22" fill="#142331">C</text>
<path d="M 274.319 695.381 A 485 485 0 0 1 285.884 649.212 L 410.286 686.949 A 355 355 0 0 0 401.821 720.743 Z" fill="#f5e7f4" stroke="#71808b" stroke-width="1.3"/>
<text x="342.59" y="695.95" text-anchor="middle" font-family="sans-serif" font-size="22" fill="#142331">A</text>
<path d="M 285.884 649.212 A 485 485 0 0 1 301.918 604.399 L 422.023 654.147 A 355 355 0 0 0 410.286 686.949 Z" fill="#f5e7f4" stroke="#71808b" stroke-width="1.3"/>
<text x="354.55" y="656.51" text-anchor="middle" font-family="sans-serif" font-size="22" fill="#142331">G</text>
<path d="M 301.918 604.399 A 485 485 0 0 1 322.268 561.373 L 436.918 622.654 A 355 355 0 0 0 422.023 654.147 Z" fill="#f5e7f4" stroke="#71808b" stroke-width="1.3"/>
<text x="370.32" y="618.43" text-anchor="middle" font-family="sans-serif" font-size="22" fill="#142331">U</text>
<path d="M 322.268 561.373 A 485 485 0 0 1 346.737 520.548 L 454.828 592.773 A 355 355 0 0 0 436.918 622.654 Z" fill="#f5e7f4" stroke="#71808b" stroke-width="1.3"/>
<text x="389.75" y="582.08" text-anchor="middle" font-family="sans-serif" font-size="22" fill="#142331">C</text>
<path d="M 346.737 520.548 A 485 485 0 0 1 375.090 482.319 L 475.581 564.790 A 355 355 0 0 0 454.828 592.773 Z" fill="#f5e7f4" stroke="#71808b" stroke-width="1.3"/>
<text x="412.65" y="547.81" text-anchor="middle" font-family="sans-serif" font-size="22" fill="#142331">A</text>
<path d="M 375.090 482.319 A 485 485 0 0 1 407.053 447.053 L 498.977 538.977 A 355 355 0 0 0 475.581 564.790 Z" fill="#f5e7f4" stroke="#71808b" stroke-width="1.3"/>
<text x="438.80" y="515.95" text-anchor="middle" font-family="sans-serif" font-size="22" fill="#142331">G</text>
<path d="M 407.053 447.053 A 485 485 0 0 1 442.319 415.090 L 524.790 515.581 A 355 355 0 0 0 498.977 538.977 Z" fill="#f5e7f4" stroke="#71808b" stroke-width="1.3"/>
<text x="467.95" y="486.80" text-anchor="middle" font-family="sans-serif" font-size="22" fill="#142331">U</text>
<path d="M 442.319 415.090 A 485 485 0 0 1 480.548 386.737 L 552.773 494.828 A 355 355 0 0 0 524.790 515.581 Z" fill="#f5e7f4" stroke="#71808b" stroke-width="1.3"/>
<text x="499.81" y="460.65" text-anchor="middle" font-family="sans-serif" font-size="22" fill="#142331">C</text>
<path d="M 480.548 386.737 A 485 485 0 0 1 521.373 362.268 L 582.654 476.918 A 355 355 0 0 0 552.773 494.828 Z" fill="#f5e7f4" stroke="#71808b" stroke-width="1.3"/>
<text x="534.08" y="437.75" text-anchor="middle" font-family="sans-serif" font-size="22" fill="#142331">A</text>
<path d="M 521.373 362.268 A 485 485 0 0 1 564.399 341.918 L 614.147 462.023 A 355 355 0 0 0 582.654 476.918 Z" fill="#f5e7f4" stroke="#71808b" stroke-width="1.3"/>
<text x="570.43" y="418.32" text-anchor="middle" font-family="sans-serif" font-size="22" fill="#142331">G</text>
<path d="M 564.399 341.918 A 485 485 0 0 1 609.212 325.884 L 646.949 450.286 A 355 355 0 0 0 614.147 462.023 Z" fill="#f5e7f4" stroke="#71808b" stroke-width="1.3"/>
<text x="608.51" y="402.55" text-anchor="middle" font-family="sans-serif" font-size="22" fill="#142331">U</text>
<path d="M 609.212 325.884 A 485 485 0 0 1 655.381 314.319 L 680.743 441.821 A 355 355 0 0 0 646.949 450.286 Z" fill="#f5e7f4" stroke="#71808b" stroke-width="1.3"/>
<text x="647.95" y="390.59" text-anchor="middle" font-family="sans-serif" font-size="22" fill="#142331">C</text>
<path d="M 655.381 314.319 A 485 485 0 0 1 702.462 307.335 L 715.204 436.709 A 355 355 0 0 0 680.743 441.821 Z" fill="#f5e7f4" stroke="#71808b" stroke-width="1.3"/>
<text x="688.37" y="382.55" text-anchor="middle" font-family="sans-serif" font-size="22" fill="#142331">A</text>
<path d="M 702.462 307.335 A 485 485 0 0 1 750.000 305.000 L 750.000 435.000 A 355 355 0 0 0 715.204 436.709 Z" fill="#f5e7f4" stroke="#71808b" stroke-width="1.3"/>
<text x="729.39" y="378.51" text-anchor="middle" font-family="sans-serif" font-size="22" fill="#142331">G</text>
<text x="777.23" y="235.67" text-anchor="middle" dominant-baseline="middle" transform="rotate(-87.19 777.23 235.67)" font-family="sans-serif" font-size="22">UUU · Phe</text>
<text x="831.44" y="241.01" text-anchor="middle" dominant-baseline="middle" transform="rotate(-81.56 831.44 241.01)" font-family="sans-serif" font-size="22">UUC · Phe</text>
<text x="884.85" y="251.63" text-anchor="middle" dominant-baseline="middle" transform="rotate(-75.94 884.85 251.63)" font-family="sans-serif" font-size="22">UUA · Leu</text>
<text x="936.97" y="267.44" text-anchor="middle" dominant-baseline="middle" transform="rotate(-70.31 936.97 267.44)" font-family="sans-serif" font-size="22">UUG · Leu</text>
<text x="987.29" y="288.29" text-anchor="middle" dominant-baseline="middle" transform="rotate(-64.69 987.29 288.29)" font-family="sans-serif" font-size="22">UCU · Ser</text>
<text x="1035.33" y="313.96" text-anchor="middle" dominant-baseline="middle" transform="rotate(-59.06 1035.33 313.96)" font-family="sans-serif" font-size="22">UCC · Ser</text>
<text x="1080.61" y="344.22" text-anchor="middle" dominant-baseline="middle" transform="rotate(-53.44 1080.61 344.22)" font-family="sans-serif" font-size="22">UCA · Ser</text>
<text x="1122.72" y="378.77" text-anchor="middle" dominant-baseline="middle" transform="rotate(-47.81 1122.72 378.77)" font-family="sans-serif" font-size="22">UCG · Ser</text>
<text x="1161.23" y="417.28" text-anchor="middle" dominant-baseline="middle" transform="rotate(-42.19 1161.23 417.28)" font-family="sans-serif" font-size="22">UAU · Tyr</text>
<text x="1195.78" y="459.39" text-anchor="middle" dominant-baseline="middle" transform="rotate(-36.56 1195.78 459.39)" font-family="sans-serif" font-size="22">UAC · Tyr</text>
<text x="1226.04" y="504.67" text-anchor="middle" dominant-baseline="middle" transform="rotate(-30.94 1226.04 504.67)" font-family="sans-serif" font-size="22">UAA · Stopp</text>
<text x="1251.71" y="552.71" text-anchor="middle" dominant-baseline="middle" transform="rotate(-25.31 1251.71 552.71)" font-family="sans-serif" font-size="22">UAG · Stopp</text>
<text x="1272.56" y="603.03" text-anchor="middle" dominant-baseline="middle" transform="rotate(-19.69 1272.56 603.03)" font-family="sans-serif" font-size="22">UGU · Cys</text>
<text x="1288.37" y="655.15" text-anchor="middle" dominant-baseline="middle" transform="rotate(-14.06 1288.37 655.15)" font-family="sans-serif" font-size="22">UGC · Cys</text>
<text x="1298.99" y="708.56" text-anchor="middle" dominant-baseline="middle" transform="rotate(-8.44 1298.99 708.56)" font-family="sans-serif" font-size="22">UGA · Stopp</text>
<text x="1304.33" y="762.77" text-anchor="middle" dominant-baseline="middle" transform="rotate(-2.81 1304.33 762.77)" font-family="sans-serif" font-size="22">UGG · Trp</text>
<text x="1304.33" y="817.23" text-anchor="middle" dominant-baseline="middle" transform="rotate(2.81 1304.33 817.23)" font-family="sans-serif" font-size="22">CUU · Leu</text>
<text x="1298.99" y="871.44" text-anchor="middle" dominant-baseline="middle" transform="rotate(8.44 1298.99 871.44)" font-family="sans-serif" font-size="22">CUC · Leu</text>
<text x="1288.37" y="924.85" text-anchor="middle" dominant-baseline="middle" transform="rotate(14.06 1288.37 924.85)" font-family="sans-serif" font-size="22">CUA · Leu</text>
<text x="1272.56" y="976.97" text-anchor="middle" dominant-baseline="middle" transform="rotate(19.69 1272.56 976.97)" font-family="sans-serif" font-size="22">CUG · Leu</text>
<text x="1251.71" y="1027.29" text-anchor="middle" dominant-baseline="middle" transform="rotate(25.31 1251.71 1027.29)" font-family="sans-serif" font-size="22">CCU · Pro</text>
<text x="1226.04" y="1075.33" text-anchor="middle" dominant-baseline="middle" transform="rotate(30.94 1226.04 1075.33)" font-family="sans-serif" font-size="22">CCC · Pro</text>
<text x="1195.78" y="1120.61" text-anchor="middle" dominant-baseline="middle" transform="rotate(36.56 1195.78 1120.61)" font-family="sans-serif" font-size="22">CCA · Pro</text>
<text x="1161.23" y="1162.72" text-anchor="middle" dominant-baseline="middle" transform="rotate(42.19 1161.23 1162.72)" font-family="sans-serif" font-size="22">CCG · Pro</text>
<text x="1122.72" y="1201.23" text-anchor="middle" dominant-baseline="middle" transform="rotate(47.81 1122.72 1201.23)" font-family="sans-serif" font-size="22">CAU · His</text>
<text x="1080.61" y="1235.78" text-anchor="middle" dominant-baseline="middle" transform="rotate(53.44 1080.61 1235.78)" font-family="sans-serif" font-size="22">CAC · His</text>
<text x="1035.33" y="1266.04" text-anchor="middle" dominant-baseline="middle" transform="rotate(59.06 1035.33 1266.04)" font-family="sans-serif" font-size="22">CAA · Gln</text>
<text x="987.29" y="1291.71" text-anchor="middle" dominant-baseline="middle" transform="rotate(64.69 987.29 1291.71)" font-family="sans-serif" font-size="22">CAG · Gln</text>
<text x="936.97" y="1312.56" text-anchor="middle" dominant-baseline="middle" transform="rotate(70.31 936.97 1312.56)" font-family="sans-serif" font-size="22">CGU · Arg</text>
<text x="884.85" y="1328.37" text-anchor="middle" dominant-baseline="middle" transform="rotate(75.94 884.85 1328.37)" font-family="sans-serif" font-size="22">CGC · Arg</text>
<text x="831.44" y="1338.99" text-anchor="middle" dominant-baseline="middle" transform="rotate(81.56 831.44 1338.99)" font-family="sans-serif" font-size="22">CGA · Arg</text>
<text x="777.23" y="1344.33" text-anchor="middle" dominant-baseline="middle" transform="rotate(87.19 777.23 1344.33)" font-family="sans-serif" font-size="22">CGG · Arg</text>
<text x="722.77" y="1344.33" text-anchor="middle" dominant-baseline="middle" transform="rotate(272.81 722.77 1344.33)" font-family="sans-serif" font-size="22">AUU · Ile</text>
<text x="668.56" y="1338.99" text-anchor="middle" dominant-baseline="middle" transform="rotate(278.44 668.56 1338.99)" font-family="sans-serif" font-size="22">AUC · Ile</text>
<text x="615.15" y="1328.37" text-anchor="middle" dominant-baseline="middle" transform="rotate(284.06 615.15 1328.37)" font-family="sans-serif" font-size="22">AUA · Ile</text>
<text x="563.03" y="1312.56" text-anchor="middle" dominant-baseline="middle" transform="rotate(289.69 563.03 1312.56)" font-family="sans-serif" font-size="22">AUG · Met</text>
<text x="512.71" y="1291.71" text-anchor="middle" dominant-baseline="middle" transform="rotate(295.31 512.71 1291.71)" font-family="sans-serif" font-size="22">ACU · Thr</text>
<text x="464.67" y="1266.04" text-anchor="middle" dominant-baseline="middle" transform="rotate(300.94 464.67 1266.04)" font-family="sans-serif" font-size="22">ACC · Thr</text>
<text x="419.39" y="1235.78" text-anchor="middle" dominant-baseline="middle" transform="rotate(306.56 419.39 1235.78)" font-family="sans-serif" font-size="22">ACA · Thr</text>
<text x="377.28" y="1201.23" text-anchor="middle" dominant-baseline="middle" transform="rotate(312.19 377.28 1201.23)" font-family="sans-serif" font-size="22">ACG · Thr</text>
<text x="338.77" y="1162.72" text-anchor="middle" dominant-baseline="middle" transform="rotate(317.81 338.77 1162.72)" font-family="sans-serif" font-size="22">AAU · Asn</text>
<text x="304.22" y="1120.61" text-anchor="middle" dominant-baseline="middle" transform="rotate(323.44 304.22 1120.61)" font-family="sans-serif" font-size="22">AAC · Asn</text>
<text x="273.96" y="1075.33" text-anchor="middle" dominant-baseline="middle" transform="rotate(329.06 273.96 1075.33)" font-family="sans-serif" font-size="22">AAA · Lys</text>
<text x="248.29" y="1027.29" text-anchor="middle" dominant-baseline="middle" transform="rotate(334.69 248.29 1027.29)" font-family="sans-serif" font-size="22">AAG · Lys</text>
<text x="227.44" y="976.97" text-anchor="middle" dominant-baseline="middle" transform="rotate(340.31 227.44 976.97)" font-family="sans-serif" font-size="22">AGU · Ser</text>
<text x="211.63" y="924.85" text-anchor="middle" dominant-baseline="middle" transform="rotate(345.94 211.63 924.85)" font-family="sans-serif" font-size="22">AGC · Ser</text>
<text x="201.01" y="871.44" text-anchor="middle" dominant-baseline="middle" transform="rotate(351.56 201.01 871.44)" font-family="sans-serif" font-size="22">AGA · Arg</text>
<text x="195.67" y="817.23" text-anchor="middle" dominant-baseline="middle" transform="rotate(357.19 195.67 817.23)" font-family="sans-serif" font-size="22">AGG · Arg</text>
<text x="195.67" y="762.77" text-anchor="middle" dominant-baseline="middle" transform="rotate(362.81 195.67 762.77)" font-family="sans-serif" font-size="22">GUU · Val</text>
<text x="201.01" y="708.56" text-anchor="middle" dominant-baseline="middle" transform="rotate(368.44 201.01 708.56)" font-family="sans-serif" font-size="22">GUC · Val</text>
<text x="211.63" y="655.15" text-anchor="middle" dominant-baseline="middle" transform="rotate(374.06 211.63 655.15)" font-family="sans-serif" font-size="22">GUA · Val</text>
<text x="227.44" y="603.03" text-anchor="middle" dominant-baseline="middle" transform="rotate(379.69 227.44 603.03)" font-family="sans-serif" font-size="22">GUG · Val</text>
<text x="248.29" y="552.71" text-anchor="middle" dominant-baseline="middle" transform="rotate(385.31 248.29 552.71)" font-family="sans-serif" font-size="22">GCU · Ala</text>
<text x="273.96" y="504.67" text-anchor="middle" dominant-baseline="middle" transform="rotate(390.94 273.96 504.67)" font-family="sans-serif" font-size="22">GCC · Ala</text>
<text x="304.22" y="459.39" text-anchor="middle" dominant-baseline="middle" transform="rotate(396.56 304.22 459.39)" font-family="sans-serif" font-size="22">GCA · Ala</text>
<text x="338.77" y="417.28" text-anchor="middle" dominant-baseline="middle" transform="rotate(402.19 338.77 417.28)" font-family="sans-serif" font-size="22">GCG · Ala</text>
<text x="377.28" y="378.77" text-anchor="middle" dominant-baseline="middle" transform="rotate(407.81 377.28 378.77)" font-family="sans-serif" font-size="22">GAU · Asp</text>
<text x="419.39" y="344.22" text-anchor="middle" dominant-baseline="middle" transform="rotate(413.44 419.39 344.22)" font-family="sans-serif" font-size="22">GAC · Asp</text>
<text x="464.67" y="313.96" text-anchor="middle" dominant-baseline="middle" transform="rotate(419.06 464.67 313.96)" font-family="sans-serif" font-size="22">GAA · Glu</text>
<text x="512.71" y="288.29" text-anchor="middle" dominant-baseline="middle" transform="rotate(424.69 512.71 288.29)" font-family="sans-serif" font-size="22">GAG · Glu</text>
<text x="563.03" y="267.44" text-anchor="middle" dominant-baseline="middle" transform="rotate(430.31 563.03 267.44)" font-family="sans-serif" font-size="22">GGU · Gly</text>
<text x="615.15" y="251.63" text-anchor="middle" dominant-baseline="middle" transform="rotate(435.94 615.15 251.63)" font-family="sans-serif" font-size="22">GGC · Gly</text>
<text x="668.56" y="241.01" text-anchor="middle" dominant-baseline="middle" transform="rotate(441.56 668.56 241.01)" font-family="sans-serif" font-size="22">GGA · Gly</text>
<text x="722.77" y="235.67" text-anchor="middle" dominant-baseline="middle" transform="rotate(447.19 722.77 235.67)" font-family="sans-serif" font-size="22">GGG · Gly</text>
<circle cx="750" cy="790" r="65" fill="white" stroke="#71808b"/>
<text x="750" y="783" text-anchor="middle" font-family="sans-serif" font-size="19">1 → 2 → 3</text>
<text x="750" y="809" text-anchor="middle" font-family="sans-serif" font-size="17">Basen</text>
<text x="750" y="1480" text-anchor="middle" font-family="sans-serif" font-size="24">Stopp beendet die Translation und ist keine Aminosäure.</text>
<text x="750" y="1520" text-anchor="middle" font-family="sans-serif" font-size="20">AUG codiert Methionin; ein Start und ein Leseraster werden in den Aufgaben vorgegeben.</text>
<text x="750" y="1560" text-anchor="middle" font-family="sans-serif" font-size="19">Eigene Darstellung · Zuordnung geprüft gegen NCBI Standardcode (T→U) · CC-BY-4.0</text>
<text x="750" y="1600" text-anchor="middle" font-family="sans-serif" font-size="19">Autorenmaterial: Darstellung und didaktische Verwendung noch unabhängig zu prüfen.</text>
</svg>
